<?xml version="1.0" standalone="no"?>
<!DOCTYPE svg PUBLIC "-//W3C//DTD SVG 20010904//EN"
 "http://www.w3.org/TR/2001/REC-SVG-20010904/DTD/svg10.dtd">
<svg version="1.0" xmlns="http://www.w3.org/2000/svg"
 width="254.000000pt" height="254.000000pt" viewBox="0 0 254.000000 254.000000"
 preserveAspectRatio="xMidYMid meet">
<metadata>
Created by potrace 1.14, written by Peter Selinger 2001-2017
</metadata>
<g transform="translate(0.000000,254.000000) scale(0.100000,-0.100000)"
fill="#000000" stroke="none">
<path d="M1070 2160 c-87 -88 -153 -130 -262 -165 -150 -48 -276 -40 -415 24
l-63 30 0 -743 c0 -627 2 -750 15 -785 45 -129 171 -200 438 -250 126 -23 229
-67 299 -130 39 -34 53 -41 88 -41 36 0 50 6 87 41 70 65 170 106 338 140 83
17 175 42 210 58 78 35 147 97 177 159 l23 47 3 753 c1 415 -1 752 -5 750 -86
-43 -134 -61 -195 -74 -184 -39 -393 32 -552 188 -43 43 -86 77 -95 76 -9 -1
-50 -36 -91 -78z m282 -172 c43 -35 52 -199 16 -295 -28 -75 -102 -154 -182
-193 -60 -30 -180 -59 -192 -47 -9 8 23 111 57 183 27 56 33 63 49 54 28 -15
34 5 6 23 -33 22 -73 31 -80 18 -4 -6 0 -11 9 -11 12 0 15 -5 10 -17 -21 -54
-53 -164 -60 -203 l-8 -45 -16 35 c-10 24 -15 66 -15 135 0 86 3 108 26 156
32 70 78 122 137 157 94 55 207 78 243 50z m-827 -128 c6 -27 10 -30 48 -30
l42 -1 -31 -27 c-25 -22 -29 -32 -23 -52 14 -48 10 -52 -21 -30 l-30 22 -37
-23 c-32 -20 -36 -21 -30 -5 21 53 19 63 -15 90 l-33 26 42 0 c38 0 43 3 54
34 14 40 25 39 34 -4z m290 0 c6 -27 10 -30 48 -30 l42 -1 -31 -27 c-24 -21
-30 -31 -23 -47 4 -11 8 -28 8 -38 1 -17 -1 -17 -29 3 l-30 22 -37 -23 c-32
-20 -36 -21 -30 -5 21 53 19 64 -13 88 l-32 23 43 5 c39 4 44 9 53 37 10 38
22 35 31 -7z m740 0 c6 -27 10 -30 48 -30 l42 -1 -32 -27 c-24 -21 -29 -31
-23 -47 5 -11 9 -28 9 -38 1 -17 -1 -17 -25 2 -33 26 -39 26 -71 1 -32 -25
-36 -22 -21 20 10 31 9 35 -21 62 l-31 28 39 0 c36 0 40 3 51 35 13 40 25 38
35 -5z m291 8 c9 -29 14 -34 52 -38 l42 -5 -30 -20 c-32 -21 -36 -38 -20 -80
l10 -27 -35 22 -35 22 -34 -22 -35 -21 10 33 c13 47 12 51 -21 73 l-30 20 42
5 c38 4 43 9 52 38 5 17 12 32 16 32 4 0 11 -15 16 -32z m-1321 -268 c6 -27
10 -30 48 -30 l42 -1 -31 -27 c-25 -22 -29 -32 -23 -52 14 -48 10 -52 -22 -29
l-31 22 -30 -23 c-36 -27 -41 -23 -26 20 11 32 10 35 -22 61 l-33 28 44 3 c39
3 44 6 53 35 10 38 22 35 31 -7z m290 0 c6 -27 10 -30 46 -30 47 0 49 -10 9
-33 -26 -16 -28 -21 -20 -43 19 -48 13 -58 -21 -33 l-31 22 -28 -22 c-16 -11
-31 -21 -34 -21 -2 0 0 17 6 37 10 36 8 39 -22 65 l-33 27 44 3 c39 3 44 6 53
35 10 38 22 35 31 -7z m740 0 c6 -27 10 -30 48 -30 l42 -1 -32 -27 c-24 -21
-29 -31 -23 -47 5 -11 9 -28 9 -38 1 -17 -1 -17 -29 3 l-30 22 -37 -23 c-32
-20 -36 -21 -30 -5 21 53 19 63 -15 90 l-33 26 42 0 c39 0 42 2 53 35 13 40
25 38 35 -5z m291 8 c9 -29 14 -34 52 -38 l42 -5 -30 -20 c-32 -21 -36 -38
-20 -79 12 -32 7 -32 -30 -5 l-28 22 -36 -23 -36 -22 10 27 c16 42 12 59 -20
80 l-30 20 42 5 c38 4 43 9 52 38 5 17 12 32 16 32 4 0 11 -15 16 -32z m64
-648 c0 -435 1 -427 -57 -482 -44 -42 -132 -77 -260 -104 -190 -40 -281 -76
-377 -149 l-48 -37 -38 31 c-50 40 -153 95 -215 115 -27 9 -104 27 -171 40
-144 29 -218 61 -273 121 l-41 45 0 410 0 410 740 0 740 0 0 -400z"/>
<path d="M1290 1968 c-19 -11 -48 -24 -65 -28 l-30 -6 43 -23 c45 -23 64 -22
43 3 -9 11 -4 20 26 45 43 36 34 41 -17 9z"/>
<path d="M1147 1894 c-3 -4 15 -17 41 -30 56 -28 82 -16 31 15 -34 21 -60 26
-72 15z"/>
<path d="M1095 1840 c-3 -5 0 -10 7 -10 7 0 30 -9 50 -19 33 -18 48 -18 48 0
0 9 -64 39 -83 39 -9 0 -19 -4 -22 -10z"/>
<path d="M1057 1794 c-4 -4 14 -18 40 -31 53 -25 63 -27 63 -13 0 22 -87 59
-103 44z"/>
<path d="M500 1235 c0 -39 4 -47 25 -57 l25 -11 0 -268 0 -267 -26 -6 c-23 -6
-25 -11 -22 -48 l3 -42 108 -27 107 -27 0 45 c0 36 -5 49 -25 65 -25 19 -25
20 -24 176 l1 157 79 -236 80 -236 54 -15 55 -15 0 373 c0 364 0 373 20 379
16 5 20 15 20 56 l0 49 -100 0 -100 0 0 -44 c0 -34 5 -48 20 -59 19 -13 20
-23 18 -189 l-3 -174 -75 233 -75 233 -82 0 -83 0 0 -45z"/>
<path d="M1030 1235 c0 -39 4 -47 25 -57 l25 -11 0 -334 0 -333 -25 -10 c-21
-8 -25 -16 -25 -48 l0 -39 108 -40 107 -40 3 45 c2 34 -2 50 -17 66 -20 21
-21 34 -21 209 l0 187 40 0 c29 0 42 -5 50 -20 7 -13 21 -20 40 -20 l30 0 0
100 0 100 -30 0 c-19 0 -33 -7 -40 -20 -8 -15 -21 -20 -50 -20 l-40 0 0 110 0
110 50 0 c49 0 49 0 61 -40 11 -38 14 -40 51 -40 l38 0 0 95 0 95 -190 0 -190
0 0 -45z"/>
<path d="M1460 1235 c0 -39 4 -47 25 -57 l25 -11 0 -297 0 -297 -25 -23 c-19
-18 -25 -34 -25 -67 0 -24 3 -43 8 -43 4 0 89 21 189 47 l183 48 0 123 0 123
-42 -3 -43 -3 -9 -72 c-9 -73 -10 -73 -45 -83 -20 -5 -42 -10 -48 -10 -10 0
-13 62 -13 278 0 266 1 278 20 290 15 9 20 23 20 57 l0 45 -110 0 -110 0 0
-45z"/>
</g>
</svg>
