<svg width="18" height="18" viewBox="0 0 18 18" fill="none" xmlns="http://www.w3.org/2000/svg">
<path d="M12.5 11.0186H11.71L11.43 10.7486C12.41 9.60855 13 8.12855 13 6.51855C13 2.92855 10.09 0.0185547 6.5 0.0185547C2.91 0.0185547 0 2.92855 0 6.51855C0 10.1086 2.91 13.0186 6.5 13.0186C8.11 13.0186 9.59 12.4286 10.73 11.4486L11 11.7286V12.5186L16 17.5086L17.49 16.0186L12.5 11.0186ZM6.5 11.0186C4.01 11.0186 2 9.00855 2 6.51855C2 4.02855 4.01 2.01855 6.5 2.01855C8.99 2.01855 11 4.02855 11 6.51855C11 9.00855 8.99 11.0186 6.5 11.0186Z" fill="#3E464F"/>
</svg>
